<svg xmlns="http://www.w3.org/2000/svg" viewBox="0 0 128.3 27.4" focusable="false" x="0px" y="0px" width="100%" height="100%" enable-background="new 0 0 128.3 27.4" xmlns:xml="http://www.w3.org/XML/1998/namespace" xml:space="preserve" xmlns:xlink="http://www.w3.org/1999/xlink" version="1.1">
                        <rect fill="#321c0f" x="0" y="0" width="100%" height="100%"/>
                        <path fill="#ffffff" d="M 14 1 H 6.6 V 1.6 H 9 V 13.8 c 0 3.7 -1 4.7 -3.3 4.7 c -1.4 0 -1.7 -1.1 -1.7 -1.6 c 0 -1.3 -0.1 -2.2 -1.3 -2.2 c -1.2 0 -1.4 1.2 -1.4 1.6 c 0 1.7 0.8 3 4.1 3 c 4 0 6.1 -1.3 6.1 -5.8 V 1.6 h 2.4 V 1 H 14 Z M 15 16.5 c -0.4 0 -0.8 0.101 -1 0.4 c -0.3 0.3 -0.4 0.6 -0.4 1 c 0 0.399 0.1 0.7 0.4 1 s 0.6 0.399 1 0.399 s 0.7 -0.1 1 -0.399 s 0.4 -0.601 0.4 -1 c 0 -0.4 -0.1 -0.7 -0.4 -1 S 15.4 16.5 15 16.5 M 31.4 16.5 c -0.4 0 -0.7 0.101 -1 0.4 c -0.3 0.3 -0.4 0.6 -0.4 1 c 0 0.399 0.1 0.7 0.4 1 c 0.3 0.3 0.6 0.399 1 0.399 s 0.8 -0.1 1 -0.399 c 0.3 -0.3 0.4 -0.601 0.4 -1 c 0 -0.4 -0.1 -0.7 -0.4 -1 C 32.1 16.6 31.8 16.5 31.4 16.5 M 26.2 1 H 19 V 1.6 h 2.1 v 14 c 0 1.1 -0.1 1.399 -0.2 1.699 C 20.8 17.7 20.5 17.9 20 18.1 c -0.3 0.1 -0.8 0.199 -1.5 0.199 V 18.9 h 7.8 V 18.3 c -0.7 0 -1.2 -0.1 -1.5 -0.199 c -0.5 -0.2 -0.8 -0.5 -0.9 -0.801 c -0.1 -0.3 -0.2 -0.6 -0.2 -1.1 v -4.8 h 1.9 c 5.6 0 7.2 -2.2 7.2 -5.2 C 32.8 3.1 31.9 1 26.2 1 M 25.2 10.7 h -1.5 v -9 H 25 c 4.3 0 5.3 1.8 5.3 4.6 C 30.3 9.2 28.6 10.7 25.2 10.7 M 55.9 17.2 c -0.1 -0.3 -0.2 -0.7 -0.2 -1.2 V 1.6 h 1.9 V 1 H 53 C 52.9 1.2 47.5 14.6 47.5 14.6 l -0.1 0.1 c -0.1 0 -0.1 0 -0.1 -0.1 c 0 0 -5.8 -13.5 -5.8 -13.601 h -5.1 V 1.6 h 2.2 V 15.5 v 1.3 c 0 0.301 -0.1 0.601 -0.3 0.9 c -0.2 0.3 -0.5 0.5 -0.8 0.6 c -0.2 0.101 -0.6 0.101 -1 0.101 V 19 h 5 v -0.6 c -0.4 0 -0.6 -0.101 -0.9 -0.101 c -0.4 -0.1 -0.6 -0.3 -0.8 -0.6 c -0.2 -0.2 -0.3 -0.5 -0.3 -0.9 l -0.1 -1.3 v -12 h 0.3 c 0 0 6.5 15.2 6.6 15.4 h 0.5 L 53 3.6 h 0.2 V 16 c 0 0.5 -0.1 0.9 -0.2 1.3 c -0.1 0.4 -0.4 0.601 -0.8 0.801 c -0.3 0.1 -0.7 0.199 -1.3 0.199 V 18.9 h 7 V 18.3 c -0.6 0 -1 -0.1 -1.3 -0.199 C 56.3 17.9 56 17.6 55.9 17.2 M 65.4 5.8 c -3.8 0 -6.1 2.5 -6.1 6.801 c 0 6.399 5 6.8 6 6.8 c 2.1 0 6.1 -1.3 6.1 -6.9 C 71.4 8.1 68.8 5.8 65.4 5.8 M 65.3 18.6 c -2.8 0 -3.3 -1.4 -3.3 -5.9 c 0 -3.5 0.2 -6.1 3.3 -6.1 c 3.3 0 3.3 2.699 3.3 5.899 C 68.6 17 67.8 18.6 65.3 18.6 M 81.201 6 c -2.201 0 -3 1.3 -3.601 2.7 h -0.2 c 0 0 -0.3 -2 -0.4 -2.5 c -0.899 0 -4.399 0 -4.399 0 v 0.7 H 75 c 0 0 0 2 0 2.7 v 6.1 c 0 0.9 -0.1 1.5 -0.299 1.9 C 74.5 18 73.9 18.3 73 18.3 H 72.6 V 19.1 H 80 V 18.3 H 79.6 c -1 0 -1.399 -0.199 -1.601 -0.6 c -0.199 -0.4 -0.299 -1 -0.299 -1.9 V 11 c 0 -1.5 1.199 -3.3 2.6 -3.3 c 1.5 0 1.4 2.2 3.1 1.3 C 84.201 8.5 84 6 81.201 6 M 110.3 17.6 c -0.801 0 -1 -0.4 -1.1 -1.2 V 14.8 V 9.4 c 0 -1.2 -0.201 -1.9 -0.9 -2.601 c -0.7 -0.699 -2 -1 -3.9 -1 c -1.8 0 -3.1 0.301 -4 1 C 99.6 7.4 99.201 8 99.201 8.9 c 0 0.399 0.1 0.7 0.299 0.8 C 99.701 9.9 100 10 100.3 10 c 0.699 0 1.1 -0.399 1.3 -1.3 c 0.101 -0.7 0.3 -1.1 0.601 -1.5 c 0.399 -0.4 1 -0.6 1.699 -0.6 c 0.9 0 1.6 0.199 1.9 0.699 c 0.3 0.5 0.5 1.101 0.5 1.9 v 2.1 c -2.301 0.2 -7.9 0.7 -7.6 4.9 c 0.1 1.6 1.5 3.1 3.399 3.1 c 2.101 0 3.399 -1.199 4.3 -2.1 c 0.1 0.9 1 2 2.5 2 c 1.7 0 2.7 -0.8 2.801 -2.9 h -0.4 C 111.3 17.1 110.8 17.6 110.3 17.6 M 106.5 16.2 v 0.1 l -0.1 0.101 c -1.199 1.1 -2.199 1.5 -2.9 1.5 c -1.799 0 -2.1 -1.5 -2.1 -2.2 c 0 -2.4 3.301 -3.6 5.1 -3.6 V 16.2 Z M 125.3 17.5 c -0.2 -0.399 -0.5 -1 -0.5 -1.899 V 9.8 c 0 -0.8 -0.1 -1.6 -0.4 -2.1 c -0.3 -0.6 -0.8 -1 -1.3 -1.3 C 122.5 6.1 121.9 6 121.201 6 C 118.6 6 117.6 7.6 117 8.5 H 116.8 l -0.5 -2.3 h -4 v 0.7 c 0.699 0 2 0 2 0 v 8.8 c 0 0.7 -0.1 1.2 -0.2 1.5 c -0.101 0.4 -0.399 0.7 -0.7 0.8 c -0.199 0.101 -0.6 0.2 -1.1 0.2 V 19 h 6.3 v -0.8 c -0.601 -0.1 -1.101 -0.2 -1.3 -0.5 c -0.2 -0.3 -0.4 -0.9 -0.4 -1.8 v -3.4 c 0 -1.399 0 -2.8 0.5 -3.6 c 0.5 -0.9 1.5 -1.4 2.5 -1.4 s 1.5 0.3 1.801 0.9 c 0.299 0.5 0.399 2 0.399 3 v 4.2 c 0 0.699 0.101 1.199 0 1.5 C 122 17.5 121.9 17.8 121.6 18 c -0.2 0.2 -0.601 0.2 -1 0.3 V 19.1 h 6.101 V 18.3 C 126 18 125.5 17.8 125.3 17.5 M 96.701 5.2 c -0.4 0.1 -0.601 0.5 -0.801 1 c -0.1 0.5 -0.3 0.8 -0.6 0.9 C 95 7.2 94.701 7.2 94.4 7 c -0.699 -0.6 -1.9 -1.3 -4.1 -1.3 c -3.6 0 -5.1 2.5 -5.1 4.8 c 0 2.7 1 4 3.299 4.5 c 0.101 0 0.101 0.2 0 0.2 C 86.6 15.6 84.8 16.2 84.8 18 c 0 1.101 0.6 1.7 1.5 2.101 c 0.9 0.399 2.199 0.6 3.8 0.6 c 1.399 0 2.399 0.1 3 0.1 c 0.7 0.101 1.2 0.301 1.7 0.601 c 0.4 0.3 0.6 0.8 0.6 1.399 c 0 0.9 -0.5 1.5 -1.4 2.101 c -0.899 0.5 -2 0.7 -3.5 0.7 c -1.199 0 -2.299 -0.101 -3.199 -0.7 c -0.7 -0.4 -0.801 -1.2 -0.7 -1.8 c 0.101 -0.601 -0.101 -1.2 -0.8 -1.4 c -0.4 -0.1 -0.9 0.1 -1.1 0.5 C 84.5 22.5 84.4 22.9 84.4 23.4 c 0 1.5 1.2 2.2 2.1 2.5 c 1.4 0.399 2.301 0.5 3.5 0.5 c 1.701 0 3 -0.3 4 -0.7 c 1 -0.5 1.601 -1.1 2 -1.8 c 0.4 -0.7 0.601 -1.4 0.601 -2.101 C 96.6 20.9 96.4 20.1 96 19.6 c -1.299 -1.7 -3.1 -1.5 -7.1 -1.7 c -1.9 0 -2.3 -0.4 -2.3 -1 c 0 -0.9 0.7 -1.2 3.5 -1.7 c 2.8 -0.4 5.399 -1.5 5.399 -4.8 c 0 -1 -0.199 -1.8 -0.5 -2.4 C 95.6 8.1 96.1 8.1 96.6 8 c 0.601 -0.2 0.899 -0.5 1.101 -0.8 C 97.9 6.8 98 6.4 97.8 6.1 C 97.9 5.3 97.4 5 96.701 5.2 M 90.4 14.6 c -1.699 0 -2.6 -0.601 -2.6 -4 c 0 -2.4 0.8 -4.2 2.6 -4.2 c 2.1 0 2.7 1.6 2.7 4.1 C 93.1 14.1 92 14.6 90.4 14.6"/>
                    </svg>